<?xml version="1.0" encoding="UTF-8" standalone="no"?>
<svg
   width="40"
   height="40"
   viewBox="0 0 40 40"
   version="1.1"
   id="svg2"
   sodipodi:docname="sadChirpy.svg"
   inkscape:export-filename="../sadChirpyOutline.svg"
   inkscape:export-xdpi="96"
   inkscape:export-ydpi="96"
   inkscape:version="1.4.2 (ebf0e940d0, 2025-05-08)"
   xmlns:inkscape="http://www.inkscape.org/namespaces/inkscape"
   xmlns:sodipodi="http://sodipodi.sourceforge.net/DTD/sodipodi-0.dtd"
   xmlns="http://www.w3.org/2000/svg"
   xmlns:svg="http://www.w3.org/2000/svg">
  <sodipodi:namedview
     id="namedview2"
     pagecolor="#ffffff"
     bordercolor="#cccccc"
     borderopacity="1"
     inkscape:showpageshadow="0"
     inkscape:pageopacity="1"
     inkscape:pagecheckerboard="0"
     inkscape:deskcolor="#d1d1d1"
     inkscape:zoom="16.975"
     inkscape:cx="8.6892489"
     inkscape:cy="17.142857"
     inkscape:window-width="1920"
     inkscape:window-height="1011"
     inkscape:window-x="0"
     inkscape:window-y="32"
     inkscape:window-maximized="1"
     inkscape:current-layer="Group_2888" />
  <defs
     id="defs2">
    <radialGradient
       id="radial-gradient"
       cx="0.113"
       cy="0.68"
       r="0.616"
       gradientTransform="matrix(-0.004, 1, -1.209, -0.004, -1.449, 1.261)"
       gradientUnits="objectBoundingBox">
      <stop
         offset="0"
         stop-color="#a0dcee"
         id="stop1" />
      <stop
         offset="1"
         stop-color="#4dcaf4"
         id="stop2" />
    </radialGradient>
    <clipPath
       id="clip-SadChirper">
      <rect
         width="40"
         height="40"
         id="rect2" />
    </clipPath>
  </defs>
  <g
     id="SadChirper"
     clip-path="url(#clip-SadChirper)">
    <g
       id="Chirper"
       transform="translate(-4.864 7.008) rotate(-16)">
      <g
         id="Group_2888"
         data-name="Group 2888"
         transform="translate(-33.581 -1.098)">
        <path
           id="Path_4185"
           data-name="Path 4185"
           d="M49.4,9.091a6.31,6.31,0,0,1,1.043-3.054c.878-1.674,5.932-2.7,6.682-2.57A10.222,10.222,0,0,0,54.778,4.9c-.52.453-1.1.936-.929,1.816.064.322.338-.587,1.8-1.662,1.136-.834,5.473.094,5.391.348a17.722,17.722,0,0,1-1.9.029A3.233,3.233,0,0,0,56.8,7.152a3.918,3.918,0,0,1,2.8-.516c.988.421,2.2,1.525,4.163,1.744,1.732.193,2.112,2.351,2.31,2.3.065.114-.65,0-1.717-.3-.584-.369-.231.06-1.655.208a3.71,3.71,0,0,1-.482.018A14.7,14.7,0,1,1,49.4,9.091Z"
           fill-rule="evenodd"
           fill="url(#radial-gradient)"
           style="fill:none;stroke-width:1;stroke-dasharray:none;stroke:#b2b2b2;stroke-opacity:1"
           inkscape:label="Path_4185" />
      </g>
      <g
         id="Group_2891"
         data-name="Group 2891">
        <g
           id="Group_2889"
           data-name="Group 2889"
           transform="matrix(0.978, -0.208, 0.208, 0.978, -37.069, 11.392)"
           style="fill:#b3b3b3">
          <path
             id="Path_4188"
             data-name="Path 4188"
             d="M.837.246c.805.639.837.735.837,1.944S1.3,4.379.837,4.379,0,3.4,0,2.189.032-.394.837.246Z"
             transform="translate(56.835 20.604)"
             fill="#032a3f"
             style="fill:#b3b3b3" />
        </g>
        <g
           id="Group_2890"
           data-name="Group 2890"
           transform="translate(-28.046 -10.674) rotate(11)"
           style="fill:#b3b3b3">
          <path
             id="Path_4189"
             data-name="Path 4189"
             d="M.876.42c.748-.843.876.561.876,1.77S1.36,4.379.876,4.379,0,3.4,0,2.19.129,1.263.876.42Z"
             transform="translate(40.419 22.761)"
             fill="#032a3f"
             style="fill:#b3b3b3" />
        </g>
      </g>
      <g
         id="Group_2892"
         data-name="Group 2892"
         transform="translate(-33.581 -1.098)"
         style="fill:#b3b3b3">
        <path
           id="Path_4186"
           data-name="Path 4186"
           d="M39.042,28.964a25.465,25.465,0,0,1,3.51-2.851,22.323,22.323,0,0,1,3.882-1.953,8.334,8.334,0,0,1,2.39,1.311,5.22,5.22,0,0,1,1.332,1.945S38.962,28.964,39.042,28.964Z"
           fill="#d8f0fa"
           fill-rule="evenodd"
           style="fill:#b3b3b3;fill-opacity:1" />
      </g>
      <g
         id="Group_2893"
         data-name="Group 2893"
         transform="translate(-33.581 -1.098)"
         style="fill:#b3b3b3">
        <path
           id="Path_4187"
           data-name="Path 4187"
           d="M50.156,27.416c-.016-.049-3.377,3.949-3.377,3.949l-8.12-2.21a37.024,37.024,0,0,1,6.311-1.739A17.164,17.164,0,0,1,50.156,27.416Z"
           fill="#16667f"
           fill-rule="evenodd"
           style="fill:#b3b3b3" />
      </g>
    </g>
    <path
       id="Path_4190"
       data-name="Path 4190"
       d="M-356.928-169.556c-.407.174.756,1.962,2.209,2.616s3.662.581,3.6,0-1.686-.16-3.139-.814S-356.522-169.731-356.928-169.556Z"
       transform="matrix(0.995, -0.105, 0.105, 0.995, 392.264, 146.78)"
       fill="#032a3f"
       style="fill:#b3b3b3" />
    <path
       id="Path_4191"
       data-name="Path 4191"
       d="M-353.889-169.556c.219.174-.406,1.962-1.186,2.616s-1.967.581-1.935,0,.905-.16,1.686-.814S-354.107-169.731-353.889-169.556Z"
       transform="matrix(0.995, -0.105, 0.105, 0.995, 379.694, 149.849)"
       fill="#032a3f"
       style="fill:#b3b3b3" />
  </g>
</svg>
